<svg xmlns="http://www.w3.org/2000/svg" viewBox="0 0 4526 1189" role="img" aria-label="Corastate">
  <title>Corastate</title>
  <g fill="#2C2620" transform="translate(100,818) scale(1,-1)">
    <path d="M522 338C512 470 425 549 289 549C127 549 34 443 34 259C34 81 127 -23 287 -23C418 -23 509 58 522 187H388C371 117 343 90 287 90C216 90 174 153 174 259C174 311 184 358 201 390C217 420 248 436 288 436C345 436 372 409 388 338Z" transform="translate(0,0)"/>
    <path d="M301 549C136 549 35 440 35 263C35 85 136 -23 302 -23C467 -23 569 85 569 259C569 442 470 549 301 549ZM302 436C379 436 429 367 429 261C429 160 377 90 302 90C226 90 175 159 175 263C175 367 226 436 302 436Z" transform="translate(541,0)"/>
    <path d="M63 540V0H203V287C203 369 244 410 326 410C341 410 351 409 370 406V548C362 549 359 549 353 549C289 549 234 507 203 434V540Z" transform="translate(1137,0)"/>
    <path d="M524 17C500 40 492 56 492 83V383C492 493 417 549 271 549C125 549 49 487 40 362H175C182 418 205 436 274 436C328 436 355 418 355 382C355 364 346 349 331 340C312 330 312 330 243 319L187 309C80 291 28 236 28 139C28 42 93 -23 192 -23C252 -23 306 2 356 54C356 26 359 16 372 0H524ZM355 217C355 136 315 90 244 90C197 90 168 115 168 155C168 197 190 217 248 229L296 238C333 245 339 247 355 255Z" transform="translate(1511,0)"/>
    <path d="M505 366C503 480 415 549 270 549C133 549 48 480 48 369C48 333 59 302 78 281C97 262 114 253 166 236L333 184C368 173 380 162 380 140C380 107 341 87 276 87C239 87 211 93 193 106C178 117 172 128 166 157H29C33 38 120 -23 284 -23C359 -23 416 -7 456 25C496 57 520 107 520 160C520 230 485 275 414 296L237 347C198 359 188 367 188 389C188 419 220 439 269 439C336 439 369 415 370 366Z" transform="translate(2052,0)"/>
    <path d="M301 529H223V674H83V529H14V436H83V104C83 19 128 -23 220 -23C252 -23 275 -20 301 -12V86C287 84 280 83 269 83C232 83 223 94 223 142V436H301Z" transform="translate(2593,0)"/>
    <path d="M524 17C500 40 492 56 492 83V383C492 493 417 549 271 549C125 549 49 487 40 362H175C182 418 205 436 274 436C328 436 355 418 355 382C355 364 346 349 331 340C312 330 312 330 243 319L187 309C80 291 28 236 28 139C28 42 93 -23 192 -23C252 -23 306 2 356 54C356 26 359 16 372 0H524ZM355 217C355 136 315 90 244 90C197 90 168 115 168 155C168 197 190 217 248 229L296 238C333 245 339 247 355 255Z" transform="translate(2911,0)"/>
    <path d="M301 529H223V674H83V529H14V436H83V104C83 19 128 -23 220 -23C252 -23 275 -20 301 -12V86C287 84 280 83 269 83C232 83 223 94 223 142V436H301Z" transform="translate(3452,0)"/>
    <path d="M524 226C525 238 525 243 525 250C525 304 517 354 504 392C468 490 381 549 272 549C117 549 22 437 22 256C22 83 116 -23 269 -23C390 -23 488 45 519 152H381C364 109 325 84 274 84C234 84 202 101 182 131C169 151 164 175 162 226ZM164 319C173 402 208 442 270 442C334 442 372 399 379 319Z" transform="translate(3770,0)"/>
  </g>
</svg>
